<svg id="visual" viewBox="0 0 1920 1080" width="1920" height="1080" xmlns="http://www.w3.org/2000/svg" xmlns:xlink="http://www.w3.org/1999/xlink" version="1.1"><rect x="0" y="0" width="1920" height="1080" fill="#ffffff"></rect><defs><linearGradient id="grad1_0" x1="43.8%" y1="100%" x2="100%" y2="0%"><stop offset="14.444444444444446%" stop-color="#ffffff" stop-opacity="1"></stop><stop offset="85.55555555555554%" stop-color="#ffffff" stop-opacity="1"></stop></linearGradient></defs><defs><linearGradient id="grad2_0" x1="0%" y1="100%" x2="56.3%" y2="0%"><stop offset="14.444444444444446%" stop-color="#ffffff" stop-opacity="1"></stop><stop offset="85.55555555555554%" stop-color="#ffffff" stop-opacity="1"></stop></linearGradient></defs><g transform="translate(1920, 1080)"><path d="M-864 0C-857.1 -64.8 -850.3 -129.6 -832.6 -190C-814.9 -250.5 -786.3 -306.7 -763.1 -367.5C-739.9 -428.3 -722 -493.8 -675.5 -538.7C-629 -583.5 -553.9 -607.8 -479.5 -601.2C-405.1 -594.7 -331.4 -557.5 -286.8 -595.5C-242.2 -633.6 -226.5 -747 -183.6 -804.3C-140.6 -861.6 -70.3 -862.8 0 -864L0 0Z" fill="#69CC65"></path></g><g transform="translate(0, 0)"><path d="M864 0C854.6 69.1 845.2 138.2 790.7 180.5C736.2 222.8 636.6 238.3 610.9 294.2C585.1 350.1 633.2 446.4 613 488.8C592.7 531.2 504.2 519.6 462 579.3C419.8 639.1 424 770.2 374.9 778.4C325.8 786.7 223.3 672.1 152 665.9C80.6 659.7 40.3 761.8 0 864L0 0Z" fill="#69CC65"></path></g></svg>