<svg id="visual" viewBox="0 0 1920 1080" width="1920" height="1080" xmlns="http://www.w3.org/2000/svg" xmlns:xlink="http://www.w3.org/1999/xlink" version="1.1"><rect x="0" y="0" width="1920" height="1080" fill="#ffffff"></rect><defs><linearGradient id="grad1_0" x1="43.8%" y1="0%" x2="100%" y2="100%"><stop offset="14.444444444444446%" stop-color="#ffffff" stop-opacity="1"></stop><stop offset="85.55555555555554%" stop-color="#ffffff" stop-opacity="1"></stop></linearGradient></defs><defs><linearGradient id="grad2_0" x1="0%" y1="0%" x2="56.3%" y2="100%"><stop offset="14.444444444444446%" stop-color="#ffffff" stop-opacity="1"></stop><stop offset="85.55555555555554%" stop-color="#ffffff" stop-opacity="1"></stop></linearGradient></defs><g transform="translate(1920, 0)"><path d="M0 972C-90.5 914.6 -181 857.2 -264.8 815.1C-348.6 772.9 -425.7 746 -518.4 713.6C-611.2 681.1 -719.5 643.1 -786.4 571.3C-853.2 499.6 -878.5 394.1 -902.6 293.3C-926.6 192.4 -949.3 96.2 -972 0L0 0Z" fill="#69CC65"></path></g><g transform="translate(0, 1080)"><path d="M0 -972C106.5 -961.3 212.9 -950.5 286.5 -881.6C360 -812.8 400.7 -685.8 435.5 -599.5C470.4 -513.2 499.6 -467.6 594.6 -432C689.7 -396.4 850.6 -370.7 924.4 -300.4C998.3 -230 985.2 -115 972 0L0 0Z" fill="#69CC65"></path></g></svg>