<svg id="visual" viewBox="0 0 1920 1080" width="1920" height="1080" xmlns="http://www.w3.org/2000/svg" xmlns:xlink="http://www.w3.org/1999/xlink" version="1.1"><rect x="0" y="0" width="1920" height="1080" fill="#ffffff"></rect><path d="M0 546L45.7 568C91.3 590 182.7 634 274.2 657.2C365.7 680.3 457.3 682.7 548.8 668.7C640.3 654.7 731.7 624.3 823 628.8C914.3 633.3 1005.7 672.7 1097 686.8C1188.3 701 1279.7 690 1371.2 697C1462.7 704 1554.3 729 1645.8 722.7C1737.3 716.3 1828.7 678.7 1874.3 659.8L1920 641L1920 1081L1874.3 1081C1828.7 1081 1737.3 1081 1645.8 1081C1554.3 1081 1462.7 1081 1371.2 1081C1279.7 1081 1188.3 1081 1097 1081C1005.7 1081 914.3 1081 823 1081C731.7 1081 640.3 1081 548.8 1081C457.3 1081 365.7 1081 274.2 1081C182.7 1081 91.3 1081 45.7 1081L0 1081Z" fill="#8dfa69"></path><path d="M0 733L45.7 718.2C91.3 703.3 182.7 673.7 274.2 688C365.7 702.3 457.3 760.7 548.8 786.7C640.3 812.7 731.7 806.3 823 799.8C914.3 793.3 1005.7 786.7 1097 760.3C1188.3 734 1279.7 688 1371.2 671.8C1462.7 655.7 1554.3 669.3 1645.8 670.7C1737.3 672 1828.7 661 1874.3 655.5L1920 650L1920 1081L1874.3 1081C1828.7 1081 1737.3 1081 1645.8 1081C1554.3 1081 1462.7 1081 1371.2 1081C1279.7 1081 1188.3 1081 1097 1081C1005.7 1081 914.3 1081 823 1081C731.7 1081 640.3 1081 548.8 1081C457.3 1081 365.7 1081 274.2 1081C182.7 1081 91.3 1081 45.7 1081L0 1081Z" fill="#78ed5b"></path><path d="M0 799L45.7 814.2C91.3 829.3 182.7 859.7 274.2 857.3C365.7 855 457.3 820 548.8 805.7C640.3 791.3 731.7 797.7 823 808.5C914.3 819.3 1005.7 834.7 1097 828C1188.3 821.3 1279.7 792.7 1371.2 783.8C1462.7 775 1554.3 786 1645.8 806.3C1737.3 826.7 1828.7 856.3 1874.3 871.2L1920 886L1920 1081L1874.3 1081C1828.7 1081 1737.3 1081 1645.8 1081C1554.3 1081 1462.7 1081 1371.2 1081C1279.7 1081 1188.3 1081 1097 1081C1005.7 1081 914.3 1081 823 1081C731.7 1081 640.3 1081 548.8 1081C457.3 1081 365.7 1081 274.2 1081C182.7 1081 91.3 1081 45.7 1081L0 1081Z" fill="#61e04c"></path><path d="M0 863L45.7 861C91.3 859 182.7 855 274.2 865.3C365.7 875.7 457.3 900.3 548.8 897.8C640.3 895.3 731.7 865.7 823 850.3C914.3 835 1005.7 834 1097 841.3C1188.3 848.7 1279.7 864.3 1371.2 867.5C1462.7 870.7 1554.3 861.3 1645.8 869.2C1737.3 877 1828.7 902 1874.3 914.5L1920 927L1920 1081L1874.3 1081C1828.7 1081 1737.3 1081 1645.8 1081C1554.3 1081 1462.7 1081 1371.2 1081C1279.7 1081 1188.3 1081 1097 1081C1005.7 1081 914.3 1081 823 1081C731.7 1081 640.3 1081 548.8 1081C457.3 1081 365.7 1081 274.2 1081C182.7 1081 91.3 1081 45.7 1081L0 1081Z" fill="#47d33d"></path><path d="M0 992L45.7 991.2C91.3 990.3 182.7 988.7 274.2 987.8C365.7 987 457.3 987 548.8 990.7C640.3 994.3 731.7 1001.7 823 1004.5C914.3 1007.3 1005.7 1005.7 1097 1004.2C1188.3 1002.7 1279.7 1001.3 1371.2 1003C1462.7 1004.7 1554.3 1009.3 1645.8 1009.5C1737.3 1009.7 1828.7 1005.3 1874.3 1003.2L1920 1001L1920 1081L1874.3 1081C1828.7 1081 1737.3 1081 1645.8 1081C1554.3 1081 1462.7 1081 1371.2 1081C1279.7 1081 1188.3 1081 1097 1081C1005.7 1081 914.3 1081 823 1081C731.7 1081 640.3 1081 548.8 1081C457.3 1081 365.7 1081 274.2 1081C182.7 1081 91.3 1081 45.7 1081L0 1081Z" fill="#24c72d"></path></svg>