<svg id="visual" viewBox="0 0 1920 1080" width="1920" height="1080" xmlns="http://www.w3.org/2000/svg" xmlns:xlink="http://www.w3.org/1999/xlink" version="1.1"><g stroke-width="1" stroke-linejoin="bevel"><path d="M954 538L975 703L1163 542Z" fill="#f1faef" stroke="#f1faef"></path><path d="M975 703L1174 726L1163 542Z" fill="#e3f5df" stroke="#e3f5df"></path><path d="M1163 542L978 340L954 538Z" fill="#e3f5df" stroke="#e3f5df"></path><path d="M1323 379L1164 343L1163 542Z" fill="#e3f5df" stroke="#e3f5df"></path><path d="M1163 542L1164 343L978 340Z" fill="#e3f5df" stroke="#e3f5df"></path><path d="M755 348L770 556L954 538Z" fill="#9adc93" stroke="#9adc93"></path><path d="M954 538L770 556L975 703Z" fill="#d5f0d0" stroke="#d5f0d0"></path><path d="M1174 726L1344 549L1163 542Z" fill="#b8e6b1" stroke="#b8e6b1"></path><path d="M770 556L785 729L975 703Z" fill="#8bd784" stroke="#8bd784"></path><path d="M975 703L1148 922L1174 726Z" fill="#69cc65" stroke="#69cc65"></path><path d="M1174 726L1358 714L1344 549Z" fill="#ffffff" stroke="#ffffff"></path><path d="M785 729L940 913L975 703Z" fill="#d5f0d0" stroke="#d5f0d0"></path><path d="M1174 726L1346 910L1358 714Z" fill="#8bd784" stroke="#8bd784"></path><path d="M940 913L1148 922L975 703Z" fill="#a9e1a2" stroke="#a9e1a2"></path><path d="M1344 549L1323 379L1163 542Z" fill="#7ad174" stroke="#7ad174"></path><path d="M978 340L755 348L954 538Z" fill="#8bd784" stroke="#8bd784"></path><path d="M1148 922L1346 910L1174 726Z" fill="#7ad174" stroke="#7ad174"></path><path d="M785 729L753 920L940 913Z" fill="#8bd784" stroke="#8bd784"></path><path d="M951 1080L1135 1080L1148 922Z" fill="#b8e6b1" stroke="#b8e6b1"></path><path d="M595 910L753 920L785 729Z" fill="#7ad174" stroke="#7ad174"></path><path d="M577 711L785 729L770 556Z" fill="#f1faef" stroke="#f1faef"></path><path d="M1337 176L1154 177L1164 343Z" fill="#c7ebc0" stroke="#c7ebc0"></path><path d="M1164 343L1154 177L978 340Z" fill="#69cc65" stroke="#69cc65"></path><path d="M978 340L769 201L755 348Z" fill="#ffffff" stroke="#ffffff"></path><path d="M1154 177L958 170L978 340Z" fill="#d5f0d0" stroke="#d5f0d0"></path><path d="M1358 714L1522 541L1344 549Z" fill="#d5f0d0" stroke="#d5f0d0"></path><path d="M1344 549L1519 362L1323 379Z" fill="#9adc93" stroke="#9adc93"></path><path d="M1323 379L1337 176L1164 343Z" fill="#d5f0d0" stroke="#d5f0d0"></path><path d="M1529 742L1522 541L1358 714Z" fill="#ffffff" stroke="#ffffff"></path><path d="M951 1080L1148 922L940 913Z" fill="#9adc93" stroke="#9adc93"></path><path d="M1148 922L1323 1080L1346 910Z" fill="#8bd784" stroke="#8bd784"></path><path d="M786 1080L951 1080L940 913Z" fill="#e3f5df" stroke="#e3f5df"></path><path d="M1346 910L1529 742L1358 714Z" fill="#ffffff" stroke="#ffffff"></path><path d="M560 550L577 711L770 556Z" fill="#7ad174" stroke="#7ad174"></path><path d="M958 170L769 201L978 340Z" fill="#a9e1a2" stroke="#a9e1a2"></path><path d="M589 347L560 550L770 556Z" fill="#e3f5df" stroke="#e3f5df"></path><path d="M589 347L770 556L755 348Z" fill="#ffffff" stroke="#ffffff"></path><path d="M1519 362L1337 176L1323 379Z" fill="#ffffff" stroke="#ffffff"></path><path d="M1154 177L1133 0L958 170Z" fill="#a9e1a2" stroke="#a9e1a2"></path><path d="M1522 541L1519 362L1344 549Z" fill="#9adc93" stroke="#9adc93"></path><path d="M1539 167L1519 362L1708 364Z" fill="#ffffff" stroke="#ffffff"></path><path d="M769 201L589 347L755 348Z" fill="#e3f5df" stroke="#e3f5df"></path><path d="M1135 1080L1323 1080L1148 922Z" fill="#b8e6b1" stroke="#b8e6b1"></path><path d="M1346 910L1552 882L1529 742Z" fill="#c7ebc0" stroke="#c7ebc0"></path><path d="M565 1080L786 1080L753 920Z" fill="#69cc65" stroke="#69cc65"></path><path d="M753 920L786 1080L940 913Z" fill="#d5f0d0" stroke="#d5f0d0"></path><path d="M371 901L595 910L577 711Z" fill="#ffffff" stroke="#ffffff"></path><path d="M577 711L595 910L785 729Z" fill="#9adc93" stroke="#9adc93"></path><path d="M1516 1080L1552 882L1346 910Z" fill="#b8e6b1" stroke="#b8e6b1"></path><path d="M1529 742L1710 531L1522 541Z" fill="#7ad174" stroke="#7ad174"></path><path d="M1346 0L1133 0L1154 177Z" fill="#a9e1a2" stroke="#a9e1a2"></path><path d="M958 170L790 0L769 201Z" fill="#7ad174" stroke="#7ad174"></path><path d="M1133 0L950 0L958 170Z" fill="#b8e6b1" stroke="#b8e6b1"></path><path d="M769 201L567 183L589 347Z" fill="#f1faef" stroke="#f1faef"></path><path d="M594 0L567 183L769 201Z" fill="#f1faef" stroke="#f1faef"></path><path d="M387 354L393 554L560 550Z" fill="#9adc93" stroke="#9adc93"></path><path d="M1519 362L1539 167L1337 176Z" fill="#ffffff" stroke="#ffffff"></path><path d="M1337 176L1346 0L1154 177Z" fill="#e3f5df" stroke="#e3f5df"></path><path d="M1710 531L1519 362L1522 541Z" fill="#e3f5df" stroke="#e3f5df"></path><path d="M1742 731L1710 531L1529 742Z" fill="#e3f5df" stroke="#e3f5df"></path><path d="M1323 1080L1516 1080L1346 910Z" fill="#a9e1a2" stroke="#a9e1a2"></path><path d="M1552 882L1742 731L1529 742Z" fill="#8bd784" stroke="#8bd784"></path><path d="M950 0L790 0L958 170Z" fill="#d5f0d0" stroke="#d5f0d0"></path><path d="M387 354L560 550L589 347Z" fill="#b8e6b1" stroke="#b8e6b1"></path><path d="M560 550L392 703L577 711Z" fill="#8bd784" stroke="#8bd784"></path><path d="M393 554L392 703L560 550Z" fill="#9adc93" stroke="#9adc93"></path><path d="M1539 167L1346 0L1337 176Z" fill="#8bd784" stroke="#8bd784"></path><path d="M595 910L565 1080L753 920Z" fill="#c7ebc0" stroke="#c7ebc0"></path><path d="M371 901L565 1080L595 910Z" fill="#a9e1a2" stroke="#a9e1a2"></path><path d="M1710 531L1708 364L1519 362Z" fill="#b8e6b1" stroke="#b8e6b1"></path><path d="M1717 909L1742 731L1552 882Z" fill="#f1faef" stroke="#f1faef"></path><path d="M1920 194L1741 164L1708 364Z" fill="#ffffff" stroke="#ffffff"></path><path d="M567 183L387 354L589 347Z" fill="#ffffff" stroke="#ffffff"></path><path d="M185 708L371 901L392 703Z" fill="#d5f0d0" stroke="#d5f0d0"></path><path d="M1716 1080L1717 909L1552 882Z" fill="#d5f0d0" stroke="#d5f0d0"></path><path d="M185 708L392 703L393 554Z" fill="#ffffff" stroke="#ffffff"></path><path d="M392 703L371 901L577 711Z" fill="#a9e1a2" stroke="#a9e1a2"></path><path d="M790 0L594 0L769 201Z" fill="#a9e1a2" stroke="#a9e1a2"></path><path d="M567 183L404 164L387 354Z" fill="#b8e6b1" stroke="#b8e6b1"></path><path d="M1741 164L1556 0L1539 167Z" fill="#f1faef" stroke="#f1faef"></path><path d="M1539 167L1556 0L1346 0Z" fill="#a9e1a2" stroke="#a9e1a2"></path><path d="M594 0L404 164L567 183Z" fill="#8bd784" stroke="#8bd784"></path><path d="M1516 1080L1716 1080L1552 882Z" fill="#d5f0d0" stroke="#d5f0d0"></path><path d="M1920 740L1920 546L1742 731Z" fill="#c7ebc0" stroke="#c7ebc0"></path><path d="M1920 370L1708 364L1710 531Z" fill="#b8e6b1" stroke="#b8e6b1"></path><path d="M1708 364L1741 164L1539 167Z" fill="#f1faef" stroke="#f1faef"></path><path d="M371 901L385 1080L565 1080Z" fill="#c7ebc0" stroke="#c7ebc0"></path><path d="M1920 740L1742 731L1920 888Z" fill="#a9e1a2" stroke="#a9e1a2"></path><path d="M1742 731L1920 546L1710 531Z" fill="#ffffff" stroke="#ffffff"></path><path d="M1920 888L1742 731L1717 909Z" fill="#7ad174" stroke="#7ad174"></path><path d="M174 562L185 708L393 554Z" fill="#e3f5df" stroke="#e3f5df"></path><path d="M371 901L205 1080L385 1080Z" fill="#8bd784" stroke="#8bd784"></path><path d="M174 562L393 554L184 365Z" fill="#c7ebc0" stroke="#c7ebc0"></path><path d="M184 365L393 554L387 354Z" fill="#ffffff" stroke="#ffffff"></path><path d="M1920 546L1920 370L1710 531Z" fill="#ffffff" stroke="#ffffff"></path><path d="M206 195L184 365L387 354Z" fill="#d5f0d0" stroke="#d5f0d0"></path><path d="M1920 0L1729 0L1741 164Z" fill="#ffffff" stroke="#ffffff"></path><path d="M1741 164L1729 0L1556 0Z" fill="#69cc65" stroke="#69cc65"></path><path d="M1920 1080L1920 888L1717 909Z" fill="#7ad174" stroke="#7ad174"></path><path d="M594 0L366 0L404 164Z" fill="#b8e6b1" stroke="#b8e6b1"></path><path d="M404 164L206 195L387 354Z" fill="#8bd784" stroke="#8bd784"></path><path d="M0 741L176 920L185 708Z" fill="#ffffff" stroke="#ffffff"></path><path d="M185 708L176 920L371 901Z" fill="#9adc93" stroke="#9adc93"></path><path d="M366 0L206 195L404 164Z" fill="#ffffff" stroke="#ffffff"></path><path d="M1920 370L1920 194L1708 364Z" fill="#e3f5df" stroke="#e3f5df"></path><path d="M176 920L205 1080L371 901Z" fill="#f1faef" stroke="#f1faef"></path><path d="M1716 1080L1920 1080L1717 909Z" fill="#c7ebc0" stroke="#c7ebc0"></path><path d="M1920 194L1920 0L1741 164Z" fill="#a9e1a2" stroke="#a9e1a2"></path><path d="M0 348L0 559L184 365Z" fill="#d5f0d0" stroke="#d5f0d0"></path><path d="M184 365L0 559L174 562Z" fill="#d5f0d0" stroke="#d5f0d0"></path><path d="M174 562L0 559L185 708Z" fill="#c7ebc0" stroke="#c7ebc0"></path><path d="M176 920L0 1080L205 1080Z" fill="#c7ebc0" stroke="#c7ebc0"></path><path d="M0 559L0 741L185 708Z" fill="#a9e1a2" stroke="#a9e1a2"></path><path d="M206 195L0 348L184 365Z" fill="#ffffff" stroke="#ffffff"></path><path d="M366 0L175 0L206 195Z" fill="#e3f5df" stroke="#e3f5df"></path><path d="M0 178L0 348L206 195Z" fill="#c7ebc0" stroke="#c7ebc0"></path><path d="M0 741L0 904L176 920Z" fill="#8bd784" stroke="#8bd784"></path><path d="M175 0L0 178L206 195Z" fill="#9adc93" stroke="#9adc93"></path><path d="M0 904L0 1080L176 920Z" fill="#7ad174" stroke="#7ad174"></path><path d="M175 0L0 0L0 178Z" fill="#a9e1a2" stroke="#a9e1a2"></path></g></svg>